{
  "accessors": [
    {
      "bufferView": 2,
      "componentType": 5126,
      "count": 47837,
      "max": [
        23.330482482910156,
        23.248281478881836,
        34.518211364746094
      ],
      "min": [
        -35.54436111450195,
        -36.337684631347656,
        -24.76219940185547
      ],
      "type": "VEC3"
    },
    {
      "bufferView": 2,
      "byteOffset": 574044,
      "componentType": 5126,
      "count": 47837,
      "type": "VEC3"
    },
    {
      "bufferView": 3,
      "componentType": 5126,
      "count": 47837,
      "type": "VEC4"
    },
    {
      "bufferView": 1,
      "componentType": 5126,
      "count": 47837,
      "type": "VEC2"
    },
    {
      "bufferView": 0,
      "componentType": 5125,
      "count": 280386,
      "type": "SCALAR"
    },
    {
      "bufferView": 2,
      "byteOffset": 1148088,
      "componentType": 5126,
      "count": 6215,
      "max": [
        38.738338470458984,
        30.253530502319336,
        -7.227540493011475
      ],
      "min": [
        -6.508458137512207,
        4.828683853149414,
        -24.839406967163086
      ],
      "type": "VEC3"
    },
    {
      "bufferView": 2,
      "byteOffset": 1222668,
      "componentType": 5126,
      "count": 6215,
      "type": "VEC3"
    },
    {
      "bufferView": 3,
      "byteOffset": 765392,
      "componentType": 5126,
      "count": 6215,
      "type": "VEC4"
    },
    {
      "bufferView": 1,
      "byteOffset": 382696,
      "componentType": 5126,
      "count": 6215,
      "type": "VEC2"
    },
    {
      "bufferView": 0,
      "byteOffset": 1121544,
      "componentType": 5125,
      "count": 34272,
      "type": "SCALAR"
    }
  ],
  "asset": {
    "generator": "fab-model-conversion",
    "version": "2.0"
  },
  "bufferViews": [
    {
      "buffer": 0,
      "byteLength": 1258632,
      "target": 34963
    },
    {
      "buffer": 0,
      "byteLength": 432416,
      "byteOffset": 1258632,
      "byteStride": 8,
      "target": 34962
    },
    {
      "buffer": 0,
      "byteLength": 1297248,
      "byteOffset": 1691048,
      "byteStride": 12,
      "target": 34962
    },
    {
      "buffer": 0,
      "byteLength": 864832,
      "byteOffset": 2988296,
      "byteStride": 16,
      "target": 34962
    }
  ],
  "buffers": [
    {
      "byteLength": 3853128,
      "uri": "scene.bin"
    }
  ],
  "images": [
    {
      "uri": "textures/Material_0_BaseColor.jpeg"
    },
    {
      "uri": "textures/Material_0_ORM.jpeg"
    },
    {
      "uri": "textures/Material_0_Normal.png"
    }
  ],
  "materials": [
    {
      "doubleSided": true,
      "name": "Material_0",
      "normalTexture": {
        "index": 2
      },
      "pbrMetallicRoughness": {
        "baseColorTexture": {
          "index": 0
        },
        "metallicRoughnessTexture": {
          "index": 1
        }
      }
    }
  ],
  "meshes": [
    {
      "name": "Pulp_Material_0_0",
      "primitives": [
        {
          "attributes": {
            "NORMAL": 1,
            "POSITION": 0,
            "TANGENT": 2,
            "TEXCOORD_0": 3
          },
          "indices": 4,
          "material": 0,
          "mode": 4
        }
      ]
    },
    {
      "name": "Stem_Material_0_0",
      "primitives": [
        {
          "attributes": {
            "NORMAL": 6,
            "POSITION": 5,
            "TANGENT": 7,
            "TEXCOORD_0": 8
          },
          "indices": 9,
          "material": 0,
          "mode": 4
        }
      ]
    }
  ],
  "nodes": [
    {
      "children": [
        1
      ],
      "matrix": [
        1.0,
        0.0,
        0.0,
        0.0,
        0.0,
        2.220446049250313e-16,
        -1.0,
        0.0,
        0.0,
        1.0,
        2.220446049250313e-16,
        0.0,
        0.0,
        0.0,
        0.0,
        1.0
      ],
      "name": "FAB converted model"
    },
    {
      "children": [
        2
      ],
      "matrix": [
        0.009999999776482582,
        0.0,
        0.0,
        0.0,
        0.0,
        0.0,
        0.009999999776482582,
        0.0,
        0.0,
        -0.009999999776482582,
        0.0,
        0.0,
        0.0,
        0.0,
        0.0,
        1.0
      ],
      "name": "lemon.fbx"
    },
    {
      "children": [
        3,
        5
      ],
      "name": "RootNode"
    },
    {
      "children": [
        4
      ],
      "matrix": [
        3.0,
        0.0,
        0.0,
        0.0,
        0.0,
        2.9999999999999787,
        -3.576278686523429e-07,
        0.0,
        0.0,
        3.576278686523429e-07,
        2.9999999999999787,
        0.0,
        0.0,
        0.0,
        0.0,
        1.0
      ],
      "name": "Pulp"
    },
    {
      "mesh": 0,
      "name": "Pulp_Material_0_0"
    },
    {
      "children": [
        6
      ],
      "matrix": [
        3.0,
        0.0,
        0.0,
        0.0,
        0.0,
        2.9999999999999787,
        -3.576278686523429e-07,
        0.0,
        0.0,
        3.576278686523429e-07,
        2.9999999999999787,
        0.0,
        0.0,
        0.0,
        0.0,
        1.0
      ],
      "name": "Stem"
    },
    {
      "mesh": 1,
      "name": "Stem_Material_0_0"
    }
  ],
  "samplers": [
    {
      "magFilter": 9729,
      "minFilter": 9987,
      "wrapS": 10497,
      "wrapT": 10497
    }
  ],
  "scene": 0,
  "scenes": [
    {
      "name": "FAB converted",
      "nodes": [
        0
      ]
    }
  ],
  "textures": [
    {
      "sampler": 0,
      "source": 0
    },
    {
      "sampler": 0,
      "source": 1
    },
    {
      "sampler": 0,
      "source": 2
    }
  ]
}
